<svg height="827" viewBox="0 0 1526 827" width="1526" xmlns="http://www.w3.org/2000/svg" xmlns:xlink="http://www.w3.org/1999/xlink"><mask id="a" fill="#fff"><path d="m.04909162.978h133.71090838v116.962h-133.71090838z" fill="#fff" fill-rule="evenodd"/></mask><g fill="#1e274b" fill-rule="evenodd"><path d="m1016.29 327.936c4.39 24.592 14.07 43.073 36.91 50.084 27.25 7.913 61.51 6.147 78.22-15.81 6.14-7.914 7.03-19.334 4.37-29-4.37-14.924-17.56-18.465-43.92-23.705-22.86-5.291-79.09-11.438-108.971-34.294-23.722-18.463-36.029-53.605-23.722-92.255 14.073-41.319 56.243-59.767 87.893-64.142 58.86-8.815 106.32 13.174 126.5 34.259 15.83 16.694 26.38 43.057 25.49 68.533h-65.02c-.87-7.899-1.75-15.811-5.28-22.855-7.88-17.565-26.36-28.118-46.56-28.118-22.86-1.733-46.56 4.408-56.24 23.743-3.51 7.028-3.51 19.331 2.65 26.359 14.04 15.811 41.29 16.694 65.02 21.085 40.41 7.029 84.35 14.061 103.67 47.464 21.98 38.652 9.68 82.592-4.38 100.156-9.67 12.303-21.09 23.723-36.03 32.504-25.47 14.074-68.53 19.348-110.72 12.321-38.66-6.143-65.024-25.477-79.948-49.2-11.42-18.463-18.448-34.275-18.448-57.129z"/><path d="m721.038 243.574h110.738c1.754-25.476-17.593-53.606-43.057-61.505-23.737-7.028-48.33-2.637-68.548 14.061-18.448 16.694-24.609 51.835-24.609 73.808.887 41.303 8.782 70.299 32.504 87.866 15.827 11.435 51.839 26.363 83.492 3.523 14.056-10.537 20.218-24.609 22.839-35.162h78.203c-1.754 24.625-25.481 64.143-49.203 81.74-42.169 30.75-97.548 36.895-141.456 20.217-94.025-35.162-108.977-124.795-101.941-178.386 3.508-21.989 11.419-44.828 22.855-65.042 21.948-35.146 53.594-59.739 97.534-66.783 48.33-7.012 95.778 7.915 126.516 42.19 17.594 20.218 34.304 53.606 40.433 80.836 3.508 18.464 7.028 37.796 5.262 57.997h-191.562z"/><g><path d="m1436.62 340.874c-7.9 21.068-29.86 33.371-56.23 36.008v.105c-5.13.834-11.03 1.629-16.93.766-17.58 0-32.51-8.783-38.67-21.957-7.01-13.19-2.62-26.36 1.77-34.274 10.54-18.449 29-21.968 54.49-27.232v-.09c7.74-.904 16.29-2.617 25.71-5.183 19.32-4.409 23.73-7.913 33.38-14.94 0 7.027.88 57.109-3.52 66.797zm79.1 11.418v-94.914c-.89-24.605-.89-49.198-6.15-72.053-5.27-22.839-25.49-60.638-90.52-68.552-12.1-.852-25.06-.864-38.06-.864v-.002c-.01 0-.01 0-.02.002-.19 0-.39-.002-.58-.002v.032c-21.77.906-44.38 4.42-62.67 11.387-38.65 15.811-58 53.606-58 93.141h70.28c-1.75-20.202 13.21-38.65 27.25-43.927 6.16-2.637 14.94-4.405 23.74-4.405v-.02c17.39-.737 34.7 3.685 46.84 14.98 7.93 7.896 10.56 18.448 7.93 29.868-4.4 18.448-24.6 24.589-55.37 28.996v.102c-10.41 1.683-22.48 2.572-35.38 4.289-36.92 4.392-89.64 22.84-101.94 76.45-4.39 21.086-.88 59.752 31.62 85.228 21.99 16.694 52.76 24.604 76.46 23.739 10.57 0 21.09-.885 29.9-2.639v-.154c24.29-5.34 43.45-16.678 61.74-31.483.87 4.391 5.26 21.084 8.79 25.492h73.8c-11.43-22.855-9.66-56.242-9.66-74.691z"/><path d="m306.914 147.402c-26.247-42.441-36.994-94.397-26.628-146.487-6.062-.156-12.099-.097-18.106.151-10.325 56.441 2.145 112.525 31.341 158.105 4.208-4.202 8.69-8.123 13.393-11.769zm-43.55 57.759c.411-1.067.841-2.121 1.278-3.173-40.725-54.356-60.75-123.604-52.027-194.292-6.34 1.455-12.615 3.133-18.812 5.028-7.57 77.039 16.846 151.994 63.994 209.413 1.595-5.797 3.449-11.47 5.567-16.976zm63.672 77.941c8.032 5.038 16.354 9.698 24.958 13.956v-19.672c-8.545-4.612-16.78-9.654-24.679-15.098-.549 6.589-.659 13.543-.279 20.814zm-44.066-112.117c-32.051-48.378-46.317-108.306-36.318-168.843-6.233.615-12.421 1.454-18.56 2.491-9.47 65.748 7.676 130.49 44.154 182.045 3.205-5.502 6.791-10.742 10.724-15.693zm69.024 72.101h6.238c-8.09-4.861-15.831-10.178-23.199-15.906-2.075 5.52-3.844 11.529-5.209 17.985 7.095 5.185 14.486 10.03 22.17 14.489zm50.134 86.733c-27.446-6.959-53.052-17.504-76.461-30.986.689 4.131 1.54 8.348 2.566 12.644 1.119 3.774 2.442 7.35 3.896 10.793 20.477 10.289 42.362 18.538 65.488 24.385 39.471 9.985 79.122 12.141 117.308 7.488 7.342-6.941 12.942-14.084 17.064-20.238-41.826 7.893-85.959 7.049-129.861-4.086zm144.86-62.824c-1.196.358-2.393.718-3.595 1.056.675 6.84.962 12.813 1.056 17.608.803-.211 1.605-.424 2.405-.642.24-6.032.293-12.042.134-18.022zm-538.202-61.149c-.112.427-.234.849-.342 1.276-2.902 11.44-5.034 22.892-6.434 34.308 59.897 141.067 181.594 254.225 340.156 297.702 10.937-2.85 21.65-6.377 32.097-10.53-5.726-1.24-11.454-2.546-17.178-4-168.07-42.642-294.539-166.347-348.299-318.756zm-8.754 64.547c-.244 15.987.926 31.797 3.416 47.288 59.027 100.785 149.886 182.968 262.816 230.134 15.084.416 30.014-.47 44.683-2.502-140.683-46.976-250.308-148.693-310.915-274.92zm27.547-115.719c-4.44 9.147-8.389 18.625-11.838 28.398 48.473 155.864 174.719 283.823 344.695 326.81 12.541 3.172 25.092 5.808 37.634 7.953 8.463-4.334 16.699-9.1 24.665-14.285-19.158-2.377-38.375-5.961-57.564-10.828-171.571-43.534-296.765-177.489-337.592-338.048zm351.749 288.153c-28.557-9.857-51.738-23.539-70.145-39.732-60.173-28.297-111.003-70.61-149.465-121.85-1.736 6.607-5.315 12.449-10.175 16.957 55.289 70.576 133.537 124.106 227.153 147.779 33.018 8.346 66.129 12.493 98.776 12.836 3.713-4.058 7.335-8.209 10.809-12.498-30.69 8.627-66.906 10.336-106.953-3.492zm-242.319-137.103c-3.626 1.25-7.501 1.96-11.55 1.96-4.082 0-7.984-.724-11.633-1.994 60.024 82.465 148.151 145.284 254.739 172.243 24.321 6.148 48.69 10.166 72.914 12.232 6.65-5.168 13.084-10.625 19.248-16.4-28.988-1.291-58.266-5.524-87.469-12.93-97.591-24.76-179.036-80.998-236.249-155.111zm118.519 7.06c-2.055-9.051-3.372-18.189-4.019-27.31-68.717-64.254-108.758-155.958-106.605-252.451-6.332 3.378-12.522 7.014-18.57 10.874 1.044 104.866 49.408 203.362 129.194 268.887zm-156.082-64.593c-22.831-41.775-38.87-87.311-47.044-134.834-5.317 7.297-10.296 14.89-14.905 22.765 10.359 47.237 28.231 92.319 52.639 133.557.591-8.276 4.009-15.751 9.31-21.488zm298.069 116.99c-16.537-4.196-32.468-9.567-47.74-15.989 23.841 28.809 88.55 45.51 128.761 32.35 5.429-1.779 10.429-3.947 15.103-6.35-31.614 1.311-63.925-1.847-96.124-10.011zm64.27-122.095c-10.609-.955-21.278-2.745-31.926-5.445-29.554-7.495-55.946-21.152-78.171-39.236-3.489 3.968-6.881 8.764-9.989 14.325 15.219 12.168 32.21 22.434 50.697 30.356zm4.351-148.555c4.991 1.263 9.997 1.796 14.911 1.696-6.861-8.009-14.199-15.635-21.982-22.836-3.549-2.235-6.652-5.019-9.265-8.188-8.103-6.84-16.634-13.233-25.574-19.132 2.316 22.645 18.534 42.55 41.91 48.46zm-8.132 31.948c15.423 3.903 30.934 3.494 45.28-.425-3.286-5.095-6.74-10.08-10.358-14.952-9.901 1.835-20.336 1.632-30.721-.999-33.968-8.603-56.15-40.188-54.121-73.905-5.305-2.992-10.734-5.818-16.281-8.469-6.503 44.357 21.676 87.494 66.201 98.75zm-204.307 114.114c-52.89-59.934-81.371-139.94-75.129-222.699-6.385 2.371-12.674 4.979-18.855 7.812-4.199 89.928 30.291 176.097 91.499 238.473.342-7.964 1.174-15.851 2.485-23.586zm287.6 11.739c1.595-.462 3.184-.94 4.767-1.437-.504-5.843-1.188-11.655-2.063-17.42-2.062.688-4.141 1.331-6.227 1.954 1.461 5.854 2.617 11.523 3.523 16.903zm-527.705 107.102c11.1 33.815 28.693 65.18 51.697 92.245 18.694 18.789 38.721 36.379 59.997 52.588 24.274 15.648 51.455 27.693 80.997 35.191 4.605 1.168 9.212 2.164 13.819 3.088-84.331-43.631-154.659-107.207-206.51-183.112zm485.525-198.8c7.069-1.133 13.983-2.888 20.677-5.207-2.498-5.166-5.162-10.247-7.976-15.245-9.413 3.024-19.307 4.729-29.418 4.973 6.154 4.853 11.715 10.04 16.717 15.479zm-373.658 76.132c1.864 0 3.679.187 5.466.463-27.031-47.912-44.298-101.379-49.892-157.16-5.851 5.785-11.452 11.844-16.784 18.169 7.055 49.969 23.12 97.882 46.901 141.559 4.379-1.937 9.214-3.031 14.309-3.031zm155.071 133.922c-7.126-10.513-12.872-21.562-17.326-32.92-90.465-66.095-146.946-171.151-151.018-284.217-6.176 4.507-12.158 9.285-17.947 14.303 8.991 124.505 78.721 238.227 186.291 302.834zm252.857-150.382c2.607-.775 5.195-1.608 7.763-2.493-1.194-5.63-2.566-11.21-4.108-16.733-3.235 1.156-6.522 2.186-9.831 3.148 2.363 5.385 4.406 10.767 6.176 16.078zm-79.737-11.363c-5.232-.82-10.471-1.858-15.705-3.184-20.326-5.155-38.857-13.797-55.152-25.098-10.954 2.566-18.004 6.856-18.004 6.856-.336.179-.678.392-1.018.587 20.035 15.705 43.59 27.589 69.842 34.226 9.552 2.416 19.119 4.05 28.64 4.949-1.45-5.105-4.061-11.297-8.603-18.336zm-118.653-78.695c-22.675-36.568-31.583-81.567-21.657-126.478-5.877-.87-11.745-1.525-17.597-2.01-10.311 48.584-.578 97.178 23.848 136.839 4.963-3.075 10.107-5.869 15.406-8.351zm32.191-10.862c-21.466-30.659-30.399-69.807-21.671-108.848-1.575-.429-3.148-.86-4.737-1.263-4.062-1.032-8.128-1.947-12.191-2.786-9.503 41.948-.81 84.037 21.048 117.811 5.738-1.99 11.603-3.63 17.551-4.914zm40.544-3.01c-25.039-23.84-37.61-59.415-30.85-95.232-5.356-2.177-10.801-4.212-16.35-6.068-7.936 36.94 1.998 73.921 24.243 101.586 7.612-.707 15.289-.809 22.957-.286zm112.327 73.419c4.155-1.117 8.268-2.37 12.3-3.823-1.847-5.391-3.868-10.713-6.043-15.97-5.17 1.86-10.471 3.378-15.858 4.612 3.556 4.963 6.744 10.044 9.601 15.181z"/></g><path d="m354.439 298.325c20.997 7.418 34.659 13.629 55.726 17.141 25.003 4.168 87.19 9.006 133.217 4.57 1.046-6.152 1.862-14.383 2.481-20.516-45.427 2.821-83.607 2.752-132.01-.06-4.012-.233-6.754-.567-11.55-1.135z"/><path d="m327.201 283.235c8.031 5.037 16.354 9.696 24.957 13.955v-19.672c-8.544-4.611-16.779-9.654-24.678-15.097-.549 6.589-.659 13.543-.279 20.814"/><path d="m437.375 188.829c-4.286-5.584-23.021-11.217-25.812-10.437.531 2.9 16.422 11.002 25.812 10.437"/><path d="m300.8 801.281h-47.195c-1.415 0-2.443-1.028-2.443-2.443v-86.416c0-1.414 1.028-2.444 2.443-2.444h47.195c1.415 0 2.443 1.03 2.443 2.444v11.187c0 1.415-1.028 2.445-2.443 2.445h-32.278v20.574h29.706c1.415 0 2.443 1.029 2.443 2.444v11.188c0 1.414-1.028 2.442-2.443 2.442h-29.706v22.505h32.278c1.415 0 2.443 1.028 2.443 2.443v11.188c0 1.415-1.028 2.443-2.443 2.443"/><path d="m365.097 801.281h-11.187c-1.415 0-2.444-1.028-2.444-2.443v-1.8c-3.986 2.829-9.644 5.529-16.717 5.529-14.531 0-19.29-8.744-19.29-21.86v-41.279c0-1.416 1.029-2.445 2.444-2.445h12.474c1.414 0 2.443 1.029 2.443 2.445v38.706c0 5.273 1.8 8.359 7.458 8.359 3.087 0 6.687-1.157 9.902-2.7v-44.365c0-1.416 1.029-2.445 2.444-2.445h12.473c1.415 0 2.444 1.029 2.444 2.445v59.41c0 1.415-1.029 2.443-2.444 2.443"/><path d="m413.706 755.63s-.772-.128-1.286-.128c-5.401 0-9.388 3.472-12.088 7.587v35.749c0 1.415-1.029 2.443-2.443 2.443h-12.474c-1.415 0-2.444-1.028-2.444-2.443v-59.41c0-1.416 1.029-2.445 2.444-2.445h11.188c1.414 0 2.442 1.029 2.442 2.445v4.886c1.801-4.631 5.144-8.616 11.703-8.616 1.415 0 2.829.257 2.829.257 1.672.129 2.186 1.028 2.186 2.443v14.917c0 1.414-.643 2.444-2.057 2.315"/><path d="m458.326 761.03c0-5.786-2.057-10.286-8.744-10.286s-8.744 4.5-8.744 10.286v16.075c0 5.787 2.057 10.287 8.744 10.287s8.744-4.5 8.744-10.287zm-8.744 41.537c-16.46 0-26.105-8.359-26.105-25.718v-15.432c0-17.36 9.645-25.719 26.105-25.719s26.105 8.359 26.105 25.719v15.432c0 17.359-9.645 25.718-26.105 25.718z"/><path d="m525.195 760.774c0-6.045-2.315-9.645-8.487-9.645-2.701 0-5.787.9-8.873 2.186v33.178h8.23c6.686 0 9.13-4.243 9.13-10.288zm-7.844 40.507c-2.315 0-5.787-.386-9.516-.899v22.889c0 1.415-1.029 2.444-2.444 2.444h-12.474c-1.414 0-2.443-1.029-2.443-2.444v-83.843c0-1.416 1.029-2.445 2.443-2.445h11.188c1.415 0 2.443 1.029 2.443 2.445v.77c4.244-2.442 9.26-4.5 14.789-4.5 14.531 0 21.218 9.13 21.218 23.147v18.004c0 14.66-8.101 24.432-25.204 24.432z"/><path d="m592.708 761.932c0-7.332-2.058-11.703-9.001-11.703-7.331 0-9.517 4.758-9.645 13.502h18.646zm13.631 14.273h-32.02c.9 7.073 4.629 10.545 12.602 10.545 6.944 0 16.846-1.671 16.846-1.671 1.543-.129 2.443.642 2.443 2.058v11.058c0 1.414-.9 2.444-2.443 2.572 0 0-9.387 1.8-17.875 1.8-17.36 0-29.191-8.359-29.191-31.12v-5.401c0-18.132 9.13-30.348 26.748-30.348 18.003 0 25.333 12.216 25.333 27.262v10.803c0 1.414-1.029 2.442-2.443 2.442z"/><path d="m654.434 775.177h-8.746c-6.172 0-8.615 2.571-8.615 6.815 0 3.986 2.315 6.43 7.33 6.43 3.215 0 6.687-1.157 10.031-2.701zm14.917 26.104h-11.188c-1.415 0-2.444-1.028-2.444-2.443v-.9c-4.243 2.572-9.516 4.629-15.56 4.629-12.602 0-20.447-5.915-20.447-19.932 0-13.117 8.616-19.933 23.148-19.933 4.372 0 8.23.258 11.574.773v-3.344c0-5.915-2.83-8.359-9.388-8.359-6.944 0-17.746 2.187-17.746 2.187-1.415.128-2.444-.515-2.444-1.93v-10.929c0-1.417 1.029-2.316 2.444-2.574 0 0 9.387-2.828 20.575-2.828 18.904 0 23.919 8.487 23.919 24.433v38.707c0 1.415-1.029 2.443-2.443 2.443z"/><path d="m736.862 801.281h-12.474c-1.414 0-2.443-1.028-2.443-2.443v-38.707c0-5.273-1.8-8.359-7.458-8.359-3.087 0-6.687 1.157-9.902 2.701v44.365c0 1.415-1.029 2.443-2.444 2.443h-12.474c-1.414 0-2.443-1.028-2.443-2.443v-59.41c0-1.416 1.029-2.445 2.443-2.445h11.188c1.415 0 2.443 1.029 2.443 2.445v1.798c3.987-2.828 9.645-5.528 16.718-5.528 14.531 0 19.289 8.744 19.289 21.861v41.279c0 1.415-1.028 2.443-2.443 2.443"/><path d="m814.919 802.567c-10.159 0-23.019-2.829-23.019-2.829-1.415-.129-2.443-1.028-2.443-2.443v-11.701c0-1.416 1.028-2.187 2.572-1.93 0 0 14.532 2.829 21.861 2.829 9.773 0 13.503-3.086 13.503-10.545v-2.572c0-5.658-4.372-7.844-10.032-9.773l-10.929-3.601c-9.131-2.957-16.332-9.13-16.332-22.632v-3.215c0-18.261 13.246-25.463 29.32-25.463 9.901 0 21.603 2.316 21.603 2.316 1.415.128 2.444 1.028 2.444 2.442v11.317c0 1.415-.901 2.186-2.444 2.057 0 0-12.987-2.057-21.346-2.057-8.873 0-12.217 3.215-12.217 9.388v1.929c0 4.243 3.086 6.558 7.588 8.101l10.93 3.601c9.773 3.215 18.774 8.357 18.774 24.305v3.857c0 20.061-10.029 26.619-29.833 26.619"/><path d="m894.26 760.774c0-6.045-2.315-9.645-8.488-9.645-2.7 0-5.786.9-8.873 2.186v33.178h8.231c6.687 0 9.13-4.243 9.13-10.288zm-7.844 40.507c-2.315 0-5.787-.386-9.517-.899v22.889c0 1.415-1.029 2.444-2.443 2.444h-12.474c-1.414 0-2.443-1.029-2.443-2.444v-83.843c0-1.416 1.029-2.445 2.443-2.445h11.188c1.415 0 2.444 1.029 2.444 2.445v.77c4.243-2.442 9.259-4.5 14.788-4.5 14.532 0 21.219 9.13 21.219 23.147v18.004c0 14.66-8.101 24.432-25.205 24.432z"/><path d="m957.271 775.177h-8.743c-6.174 0-8.616 2.571-8.616 6.815 0 3.986 2.316 6.43 7.329 6.43 3.216 0 6.688-1.157 10.03-2.701zm14.918 26.104h-11.187c-1.415 0-2.443-1.028-2.443-2.443v-.9c-4.245 2.572-9.517 4.629-15.561 4.629-12.602 0-20.447-5.915-20.447-19.932 0-13.117 8.616-19.933 23.147-19.933 4.373 0 8.231.258 11.573.773v-3.344c0-5.915-2.828-8.359-9.386-8.359-6.945 0-17.746 2.187-17.746 2.187-1.414.128-2.444-.515-2.444-1.93v-10.929c0-1.417 1.03-2.316 2.444-2.574 0 0 9.387-2.828 20.575-2.828 18.903 0 23.919 8.487 23.919 24.433v38.707c0 1.415-1.029 2.443-2.444 2.443z"/><path d="m1027.48 801.41s-6.17 1.157-11.31 1.157c-16.463 0-26.107-8.359-26.107-25.718v-15.432c0-17.36 9.644-25.719 26.107-25.719 5.66 0 11.31 1.156 11.31 1.156 1.68.129 2.45 1.158 2.45 2.574v10.415c0 1.415-1.03 2.186-2.45 2.057 0 0-5.65-.771-10.15-.771-7.85 0-9.91 4.373-9.91 10.93v14.146c0 6.944 2.32 10.932 10.03 10.932 5.02 0 10.03-.773 10.03-.773 1.42-.129 2.45.644 2.45 2.058v10.416c0 1.415-.77 2.443-2.45 2.572"/><path d="m1074.94 761.932c0-7.332-2.06-11.703-9.01-11.703-7.33 0-9.51 4.758-9.64 13.502h18.65zm13.63 14.273h-32.02c.9 7.073 4.63 10.545 12.6 10.545 6.94 0 16.84-1.671 16.84-1.671 1.55-.129 2.45.642 2.45 2.058v11.058c0 1.414-.9 2.444-2.45 2.572 0 0-9.38 1.8-17.87 1.8-17.36 0-29.19-8.359-29.19-31.12v-5.401c0-18.132 9.13-30.348 26.75-30.348 18 0 25.33 12.216 25.33 27.262v10.803c0 1.414-1.03 2.442-2.44 2.442z"/><g transform="translate(1136 709)"><path d="m37.05 23.74-10.28 37.035h20.44zm34.98 68.541h-14.02c-1.41 0-2.31-1.028-2.7-2.443l-3.6-12.988h-29.45l-3.6 12.988c-.38 1.415-1.28 2.443-2.7 2.443h-14.01c-1.42 0-2.19-1.157-1.8-2.571l25.46-86.288c.38-1.414 1.54-2.444 2.96-2.444h16.84c1.42 0 2.57 1.03 2.96 2.444l25.46 86.288c.39 1.414-.38 2.571-1.8 2.571z" mask="url(#a)"/><path d="m116.4 43.029c-3.35-.514-6.43-.9-8.23-.9-6.69 0-9.13 3.6-9.13 9.645v14.145c0 6.044 2.31 9.644 8.48 9.644 2.7 0 5.79-.899 8.88-2.185zm-7.98 74.971c-10.29 0-21.73-2.442-21.73-2.442-1.54-.129-2.44-1.158-2.44-2.573v-11.316c0-1.415.9-2.057 2.44-1.93 0 0 11.19 2.187 18.77 2.187 8.62 0 10.94-3.73 10.94-11.574v-3.085c-3.99 2.186-8.62 3.729-13.51 3.729-14.53 0-21.22-9.131-21.22-23.147v-16.718c0-14.66 8.11-24.433 25.21-24.433 11.19 0 24.43 3.215 24.43 3.215 1.42.128 2.45 1.028 2.45 2.442v57.997c0 20.961-7.46 27.648-25.34 27.648z" mask="url(#a)"/></g><path d="m1319.91 761.932c0-7.332-2.06-11.703-9-11.703-7.33 0-9.52 4.758-9.65 13.502h18.65zm13.63 14.273h-32.02c.9 7.073 4.63 10.545 12.6 10.545 6.95 0 16.85-1.671 16.85-1.671 1.54-.129 2.44.642 2.44 2.058v11.058c0 1.414-.9 2.444-2.44 2.572 0 0-9.39 1.8-17.88 1.8-17.36 0-29.19-8.359-29.19-31.12v-5.401c0-18.132 9.13-30.348 26.75-30.348 18 0 25.33 12.216 25.33 27.262v10.803c0 1.414-1.03 2.442-2.44 2.442z"/><path d="m1399.77 801.281h-12.48c-1.41 0-2.44-1.028-2.44-2.443v-38.707c0-5.273-1.8-8.359-7.46-8.359-3.08 0-6.69 1.157-9.9 2.701v44.365c0 1.415-1.03 2.443-2.44 2.443h-12.48c-1.41 0-2.44-1.028-2.44-2.443v-59.41c0-1.416 1.03-2.445 2.44-2.445h11.19c1.41 0 2.44 1.029 2.44 2.445v1.798c3.99-2.828 9.65-5.528 16.72-5.528 14.53 0 19.29 8.744 19.29 21.861v41.279c0 1.415-1.03 2.443-2.44 2.443"/><path d="m1454.42 801.41s-6.17 1.157-11.32 1.157c-16.46 0-26.1-8.359-26.1-25.718v-15.432c0-17.36 9.64-25.719 26.1-25.719 5.66 0 11.32 1.156 11.32 1.156 1.67.129 2.44 1.158 2.44 2.574v10.415c0 1.415-1.02 2.186-2.44 2.057 0 0-5.66-.771-10.16-.771-7.84 0-9.9 4.373-9.9 10.93v14.146c0 6.944 2.31 10.932 10.03 10.932 5.02 0 10.03-.773 10.03-.773 1.42-.129 2.44.644 2.44 2.058v10.416c0 1.415-.77 2.443-2.44 2.572"/><path d="m1494.28 823.4c-.38 1.286-1.28 2.315-2.7 2.315h-13.88c-1.42 0-2.32-1.286-1.93-2.572l7.07-20.834-20.06-62.881c-.39-1.416.64-2.445 2.06-2.445h13.63c1.41 0 2.44.773 2.83 2.187l10.93 35.621 12.08-35.492c.39-1.287 1.42-2.316 2.83-2.316h13.63c1.42 0 2.45 1.286 2.06 2.572z"/></g></svg>