<?xml version="1.0" encoding="UTF-8"?>
<!-- Generator: Adobe Illustrator 24.0.1, SVG Export Plug-In . SVG Version: 6.00 Build 0)  -->
<svg version="1.1" id="Ebene_1" xmlns="http://www.w3.org/2000/svg" xmlns:xlink="http://www.w3.org/1999/xlink" x="0px" y="0px" viewBox="0 0 181.6 43.2" style="enable-background:new 0 0 181.6 43.2;" xml:space="preserve">
<style type="text/css">
	.st0{fill:#2756A3;}
	.st1{fill:#72B9CC;}
</style>
<g>
	<path class="st0" d="M106.3,32.3c0,0.8-0.2,1.5-0.5,2.1c-0.3,0.6-0.8,1.1-1.4,1.5c-0.6,0.4-1.2,0.7-2,0.9c-0.8,0.2-1.6,0.3-2.4,0.3   h-9V18.5h10.3c0.6,0,1.2,0.1,1.7,0.4c0.5,0.3,1,0.6,1.3,1.1s0.6,0.9,0.8,1.5s0.3,1.1,0.3,1.7c0,0.9-0.2,1.7-0.7,2.5   c-0.4,0.8-1.1,1.4-2,1.8c1.1,0.3,1.9,0.9,2.5,1.7C106,30,106.3,31,106.3,32.3z M95.3,22.2V26h4.2c0.5,0,0.9-0.2,1.2-0.5   c0.4-0.3,0.5-0.8,0.5-1.5c0-0.6-0.2-1.1-0.5-1.4c-0.3-0.3-0.7-0.5-1.2-0.5H95.3z M102,31.4c0-0.6-0.2-1.1-0.5-1.5   c-0.3-0.4-0.7-0.6-1.2-0.6h-4.9v4h4.7c0.6,0,1-0.2,1.4-0.5C101.8,32.5,102,32,102,31.4z"/>
	<path class="st0" d="M108.9,37V18.5h4.3V37H108.9z"/>
	<path class="st0" d="M116.7,37V18.5h12.5v3.7h-8.3v4h6.8v3.5h-6.8V37H116.7z"/>
	<path class="st0" d="M138.8,37.2c-1.3,0-2.5-0.3-3.6-0.8c-1.1-0.5-2-1.2-2.8-2.1c-0.8-0.9-1.4-1.9-1.8-3c-0.4-1.1-0.6-2.3-0.6-3.5   c0-1.2,0.2-2.4,0.7-3.5s1.1-2.1,1.8-3c0.8-0.9,1.7-1.5,2.8-2.1c1.1-0.5,2.3-0.8,3.6-0.8c1.3,0,2.5,0.3,3.6,0.8   c1.1,0.5,2,1.2,2.8,2.1c0.8,0.9,1.4,1.9,1.8,3c0.4,1.1,0.6,2.3,0.6,3.4c0,1.2-0.2,2.4-0.7,3.5s-1.1,2.1-1.8,3   c-0.8,0.9-1.7,1.5-2.8,2.1C141.3,36.9,140.1,37.2,138.8,37.2z M134.4,27.8c0,0.7,0.1,1.4,0.3,2.1c0.2,0.7,0.5,1.3,0.9,1.8   c0.4,0.5,0.8,0.9,1.4,1.2c0.6,0.3,1.2,0.5,1.9,0.5c0.7,0,1.4-0.2,2-0.5c0.6-0.3,1-0.8,1.4-1.3c0.4-0.5,0.7-1.1,0.8-1.8   c0.2-0.7,0.3-1.3,0.3-2c0-0.7-0.1-1.4-0.3-2.1c-0.2-0.7-0.5-1.3-0.9-1.8s-0.9-0.9-1.4-1.2c-0.6-0.3-1.2-0.5-1.9-0.5   c-0.7,0-1.4,0.2-2,0.5s-1,0.7-1.4,1.3c-0.4,0.5-0.7,1.1-0.8,1.8C134.5,26.4,134.4,27.1,134.4,27.8z"/>
	<path class="st0" d="M150.2,37V18.5h4.3v14.7h9V37H150.2z"/>
	<path class="st0" d="M165.5,37V18.5h6.9c1.5,0,2.9,0.2,4,0.7c1.1,0.5,2.1,1.1,2.9,2c0.8,0.8,1.4,1.8,1.7,2.9   c0.4,1.1,0.6,2.3,0.6,3.6c0,1.4-0.2,2.7-0.7,3.8c-0.4,1.1-1.1,2.1-1.9,2.9c-0.8,0.8-1.8,1.4-2.9,1.9c-1.1,0.4-2.4,0.7-3.8,0.7   H165.5z M177.2,27.8c0-0.8-0.1-1.6-0.3-2.2c-0.2-0.7-0.5-1.2-1-1.7c-0.4-0.5-0.9-0.9-1.5-1.1s-1.3-0.4-2.1-0.4h-2.6v11h2.6   c0.8,0,1.5-0.1,2.1-0.4c0.6-0.3,1.1-0.7,1.5-1.2c0.4-0.5,0.7-1.1,0.9-1.7C177.1,29.3,177.2,28.5,177.2,27.8z"/>
</g>
<polygon class="st0" points="80.4,14 55.6,14 80.4,38.8 "/>
<polygon class="st1" points="54,15.6 38.4,0 0,17 58.5,43.2 74,40.4 78.1,39.7 "/>
</svg>